<svg id="visual" viewBox="0 0 900 600" width="900" height="600" xmlns="http://www.w3.org/2000/svg" xmlns:xlink="http://www.w3.org/1999/xlink" version="1.1"><rect x="0" y="0" width="900" height="600" fill="#C6893F"></rect><path d="M0 497L12.5 475.3C25 453.7 50 410.3 75 403C100 395.7 125 424.3 150 424.2C175 424 200 395 225 399.5C250 404 275 442 300 439.3C325 436.7 350 393.3 375 377.5C400 361.7 425 373.3 450 392C475 410.7 500 436.3 525 431.2C550 426 575 390 600 371.3C625 352.7 650 351.3 675 366.7C700 382 725 414 750 417.7C775 421.3 800 396.7 825 382.2C850 367.7 875 363.3 887.5 361.2L900 359L900 601L887.5 601C875 601 850 601 825 601C800 601 775 601 750 601C725 601 700 601 675 601C650 601 625 601 600 601C575 601 550 601 525 601C500 601 475 601 450 601C425 601 400 601 375 601C350 601 325 601 300 601C275 601 250 601 225 601C200 601 175 601 150 601C125 601 100 601 75 601C50 601 25 601 12.5 601L0 601Z" fill="#244C5A" stroke-linecap="round" stroke-linejoin="miter"></path></svg>