<svg id="visual" viewBox="0 0 900 450" width="900" height="450" xmlns="http://www.w3.org/2000/svg" xmlns:xlink="http://www.w3.org/1999/xlink" version="1.1"><rect x="0" y="0" width="900" height="450" fill="#244C5A"></rect><path d="M0 342L21.5 333.2C43 324.3 86 306.7 128.8 308.3C171.7 310 214.3 331 257.2 340C300 349 343 346 385.8 337.7C428.7 329.3 471.3 315.7 514.2 289.7C557 263.7 600 225.3 642.8 234.3C685.7 243.3 728.3 299.7 771.2 322C814 344.3 857 332.7 878.5 326.8L900 321L900 451L878.5 451C857 451 814 451 771.2 451C728.3 451 685.7 451 642.8 451C600 451 557 451 514.2 451C471.3 451 428.7 451 385.8 451C343 451 300 451 257.2 451C214.3 451 171.7 451 128.8 451C86 451 43 451 21.5 451L0 451Z" fill="#C6893F"></path></svg>