<svg id="visual" viewBox="0 0 900 450" width="900" height="450" xmlns="http://www.w3.org/2000/svg" xmlns:xlink="http://www.w3.org/1999/xlink" version="1.1"><rect x="0" y="0" width="900" height="450" fill="#ffffff"></rect><defs><linearGradient id="grad1_0" x1="50%" y1="0%" x2="100%" y2="100%"><stop offset="10%" stop-color="#ffffff" stop-opacity="1"></stop><stop offset="90%" stop-color="#ffffff" stop-opacity="1"></stop></linearGradient></defs><defs><linearGradient id="grad2_0" x1="0%" y1="0%" x2="50%" y2="100%"><stop offset="10%" stop-color="#ffffff" stop-opacity="1"></stop><stop offset="90%" stop-color="#ffffff" stop-opacity="1"></stop></linearGradient></defs><g transform="translate(900, 0)"><path d="M0 405C-53.4 365 -106.9 324.9 -171 296.2C-235.1 267.4 -310 250 -350.7 202.5C-391.5 155 -398.3 77.5 -405 0L0 0Z" fill="#333F48"></path></g><g transform="translate(0, 450)"><path d="M0 -405C78 -398.5 155.9 -392.1 202.5 -350.7C249.1 -309.4 264.2 -233.3 292.7 -169C321.2 -104.7 363.1 -52.4 405 0L0 0Z" fill="#333F48"></path></g></svg>